<?xml version="1.0" standalone="no"?>
<svg version="1.1" id="Layer_1" xmlns="http://www.w3.org/2000/svg" xmlns:xlink="http://www.w3.org/1999/xlink" x="0px" y="0px" width="595.276px" height="595.276px" viewBox="0 0 595.276 595.276" enable-background="new 0 0 595.276 595.276" xml:space="preserve">
<rect id="color_x5F_7" x="292.595" y="267.303" fill-rule="evenodd" clip-rule="evenodd" fill="#E96257" width="76.085" height="59.244"></rect>
<path id="color_x5F_6" fill-rule="evenodd" clip-rule="evenodd" fill="#1ACEBD" d="M94.766,466.423h-9.844
	c-7.676-3.143-15.135-7.48-22.074-13.021c-15.326-12.241-25.456-28.27-29.831-44.822c13.864,0.489,28.226,4.715,41.333,12.826
	c0.06,0.178,0.112,0.357,0.173,0.534c4.661,13.422,11.666,25.248,20.243,35.033v0.271l-43.47-34.719
	c-0.091-0.075-0.205-0.115-0.323-0.114c-0.272,0.004-0.492,0.229-0.492,0.499c0,0.155,0.071,0.3,0.192,0.395l44.093,35.215
	L94.766,466.423L94.766,466.423z M496.291,466.423h-8.186v-8.484l53.414-42.659c0.121-0.095,0.193-0.241,0.193-0.395
	c0-0.274-0.226-0.499-0.499-0.499h-0.01c-0.112,0.002-0.221,0.042-0.308,0.114l-50.525,40.353
	c10.326-11.326,18.749-25.215,24.261-41.085c0.072-0.207,0.13-0.414,0.201-0.62c14.807-9.17,31.038-13.943,46.703-14.48
	c-4.92,18.692-16.351,36.795-33.654,50.614C518.052,457.134,507.293,462.837,496.291,466.423L496.291,466.423z M515.375,341.893
	c6.871,21.699,6.868,46.914-1.687,71.548c-5.737,16.517-14.653,30.858-25.583,42.37v-33.879l16.43-47.305
	c0.019-0.055,0.029-0.112,0.029-0.17c0-0.27-0.218-0.493-0.487-0.499c-0.219-0.005-0.415,0.134-0.484,0.342l-15.487,44.588V400.72
	c0-0.275-0.225-0.499-0.499-0.499h-15.639c0.128-0.379,0.253-0.757,0.385-1.136C480.894,374.485,496.491,354.718,515.375,341.893z
	 M73.947,358.211c8.33,5.656,15.956,12.843,22.44,21.361l-0.016,0.055c-0.004,0.016-0.007,0.033-0.009,0.05
	c-1.017,2.261-1.596,4.761-1.596,7.4v29.555l-10.337-29.766c-0.07-0.213-0.276-0.354-0.499-0.342
	c-0.264,0.013-0.474,0.234-0.474,0.498c0,0.058,0.01,0.116,0.03,0.171l11.281,32.479v35.765
	c-8.148-9.515-14.818-20.923-19.299-33.826C67.885,399.785,67.876,377.444,73.947,358.211L73.947,358.211z M413.988,400.221h-35.654
	c0.232-0.374,0.383-0.617,0.972-1.567v-0.002c3.991-6.441,10.918-10.175,18.167-10.263c2.416-0.029,4.868,0.348,7.259,1.163
	c1.945,0.663,3.777,1.288,5.31,1.811c2.362,0.804,3.946,3.019,3.946,5.514V400.221L413.988,400.221z M437.283,375.337h-4.67
	l-1.947-9.566l4.483-0.914L437.283,375.337z M333.056,363.328l4.298,1.576l-3.246,8.839c-1.423-0.068-3.597-0.172-3.722-0.178
	c-0.062-0.086-0.455-0.631-0.721-1.001L333.056,363.328L333.056,363.328z"></path>
<path id="color_x5F_5" fill-rule="evenodd" clip-rule="evenodd" fill="#FFD2BB" d="M331.22,400.221h-19.681v-26.554l8.193,0.39
	c0.122,0.006,0.243-0.032,0.338-0.109c0,0,1.385-1.12,2.86-2.308h0.002c0.578-0.466,1.279-0.739,2.008-0.803
	c0.035,0,0.07-0.003,0.104-0.01c0.238-0.014,0.477-0.009,0.717,0.023c1.013,0.136,1.925,0.68,2.523,1.508
	c0.185,0.256,0.176,0.244,0.34,0.47c0.032,0.096,0.092,0.181,0.173,0.242c0.4,0.553,0.921,1.275,0.921,1.275
	c0.09,0.123,0.231,0.199,0.383,0.206c0,0,3.908,0.187,7.393,0.353c1.143,0.055,2.193,0.625,2.863,1.553
	c0.667,0.926,0.877,2.104,0.567,3.205c-1.1,3.904-2.531,8.985-3.755,13.331c-0.055,0.085-0.083,0.185-0.08,0.286
	c-0.289,1.025-0.652,2.318-0.895,3.179C335.564,398.686,333.535,400.221,331.22,400.221L331.22,400.221z M203.29,302.467h-33.568
	l2.122-27.307l19.585-6.721c2.104,2.466,5.509,3.658,8.842,2.765c0.219-0.058,0.372-0.258,0.372-0.482c0-0.275-0.226-0.5-0.499-0.5
	c-0.044,0-0.087,0.006-0.129,0.017c-3.042,0.815-6.142-0.316-7.986-2.628c-0.026-0.045-0.058-0.086-0.096-0.121
	c-0.593-0.775-1.051-1.676-1.318-2.678c-1.098-4.097,1.33-8.304,5.426-9.402c1.277-0.342,2.561-0.34,3.761-0.052
	c0.219,0.054,0.448-0.046,0.557-0.244c0.12-0.06,0.211-0.166,0.252-0.293l4.366-11.895h18.129
	c-0.015,0.224-1.574,23.023-2.142,31.339c-0.27,3.95-2.181,7.606-5.271,10.082s-7.074,3.544-10.989,2.945
	c-0.447-0.068-0.328-0.05-0.763-0.117c-0.051-0.016-0.104-0.024-0.158-0.023h-0.002c-8.792-1.342-15.522-2.368-15.522-2.368
	c-0.03-0.006-0.06-0.009-0.09-0.009c-0.274,0-0.499,0.226-0.499,0.5c0,0.251,0.19,0.464,0.439,0.495c0,0,6.7,1.021,15.181,2.315
	L203.29,302.467L203.29,302.467z M414.928,295.961h-4.293v-4.296h4.293V295.961z M420.221,290.666h-4.294v-4.293h4.294V290.666z
	 M425.515,285.375h-4.296v-4.296h4.296V285.375z"></path>
<path id="color_x5F_4" fill-rule="evenodd" clip-rule="evenodd" fill="#00CEC9" d="M305.847,466.423h-91.288l-4.506-27.471
	h69.193c11.172,0,20.976,7.432,23.996,18.189L305.847,466.423z M453.092,400.221h-25.784v-6.522h25.784V400.221z M447.441,375.337
	h-4.646l3.143-18.033l4.51,0.786l-0.33,1.895c-0.025,0.063-0.037,0.132-0.035,0.201L447.441,375.337L447.441,375.337z
	 M238.222,375.287h-41.285c-3.344-3.891-8.294-6.312-13.732-6.312H131.28v-25.936h98.569l8.373,19.8V375.287z M336.343,358.418
	c0.297-0.014,0.893,0.134,0.907,0.143c1.189,0.439,1.791,1.744,1.354,2.933c-0.445,1.212-0.772,2.102-0.907,2.472l-4.298-1.576
	c0.135-0.369,0.463-1.26,0.909-2.472C334.625,359.054,335.399,358.498,336.343,358.418L336.343,358.418z M409.635,295.961h-4.294
	v-4.296h4.294V295.961z M414.928,290.666h-4.293v-4.293h4.293V290.666z M420.221,285.375h-4.294v-4.296h4.294V285.375z
	 M204.628,241.929c-0.21,0.001-0.397,0.132-0.468,0.329l-4.432,12.074c-0.584-0.117-1.182-0.188-1.789-0.181
	c-0.714,0.007-1.436,0.104-2.156,0.297c-4.618,1.237-7.37,6.005-6.133,10.623c0.248,0.927,0.642,1.774,1.145,2.532l-19.246,6.602
	c-6.315-8.2-10.128-16.887-10.778-25.007c-0.658-8.213,1.881-15.838,8.357-21.936c0.058-0.055,0.102-0.122,0.129-0.197
	c0,0,0.404-1.147,1.003-2.837c2.634-7.445,9.561-12.433,17.348-12.667c0.519-0.016,1.043-0.01,1.568,0.018
	c19.001,0.989,49.376,2.571,50.086,2.608c-1.953,12.035-9.187,17.196-9.187,17.196c-0.132,0.094-0.21,0.246-0.21,0.406
	c0,0.142,0.06,0.277,0.165,0.372l10.579,9.478c-7.844,8.486-15.523,11.917-17.278,12.636c0.262-3.816,0.808-11.814,0.808-11.814
	c0.001-0.011,0.001-0.022,0.001-0.034c0-0.274-0.226-0.499-0.499-0.499h-0.001L204.628,241.929L204.628,241.929z M353.64,128.122
	c20.334,0,36.809,16.473,36.809,36.807c0,20.333-16.475,36.806-36.809,36.806c-20.333,0-36.806-16.473-36.806-36.806
	C316.833,144.595,333.306,128.122,353.64,128.122z M353.64,137.474c15.17,0,27.458,12.286,27.458,27.456
	c0,15.169-12.288,27.457-27.458,27.457c-15.169,0-27.455-12.288-27.455-27.457C326.185,149.788,338.425,137.521,353.64,137.474z"></path>
<path id="color_x5F_3" fill-rule="evenodd" clip-rule="evenodd" fill="#E84393" d="M238.222,437.954H209.89
	c-3.045-18.564-5.917-36.079-8.823-53.806c-0.554-3.379-2.024-6.412-4.129-8.861h41.285v62.667H238.222z M453.092,392.7h-25.784
	v-16.364h25.784V392.7z M229.849,343.039H131.28v-39.573h101.848c-0.28,0.102-0.562,0.189-0.841,0.306
	c-8.911,3.768-13.091,14.075-9.323,22.986L229.849,343.039L229.849,343.039z M353.64,137.474c15.17,0,27.458,12.286,27.458,27.456
	c0,15.169-12.288,27.457-27.458,27.457c-15.169,0-27.455-12.288-27.455-27.457C326.185,149.788,338.425,137.521,353.64,137.474z
	 M213.547,466.423H95.764v-79.346c0-9.452,7.651-17.103,17.102-17.103h70.338c8.38,0,15.519,6.064,16.875,14.335
	C203.006,402.145,213.504,466.162,213.547,466.423z M366.022,400.221h-6.398v-4.472c0-1.643-1.344-2.984-2.987-2.984h-18.368
	c1.199-4.257,2.556-9.074,3.615-12.832c0.392-1.392,0.127-2.887-0.718-4.059v-0.002c-0.846-1.174-2.181-1.898-3.627-1.967
	c-1.125-0.054-1.352-0.064-2.385-0.113l3.308-9.013c0,0,0.551-1.498,1.081-2.939c0.6-1.636-0.213-3.427-1.789-4.116
	c-0.047-0.044-0.242-0.123-0.246-0.123c-0.4-0.136-0.808-0.198-1.208-0.178c-1.279,0.063-2.463,0.876-2.93,2.149
	c-0.529,1.441-1.079,2.942-1.079,2.942l-3.342,9.1c-0.757-0.954-1.844-1.593-3.056-1.756c-0.151-0.02-0.301-0.01-0.45-0.016v-18.327
	h40.58L366.022,400.221L366.022,400.221z M345.731,334.521c2.498,0,4.513,2.014,4.513,4.51s-2.015,4.51-4.513,4.51
	c-2.497,0-4.51-2.014-4.51-4.51S343.234,334.521,345.731,334.521z M268.123,326.547h-8.099l-0.27-0.765v-75.286h8.369V326.547
	L268.123,326.547z M431.711,326.543h-38.558V301.86h38.558V326.543z M431.711,300.861h-38.558v-24.683h38.558V300.861z
	 M414.928,291.665h-4.293v4.296h4.293V291.665z M409.635,291.665h-4.294v4.296h4.294V291.665z M414.928,286.374h-4.293v4.293h4.293
	V286.374z M420.221,286.374h-4.294v4.293h4.294V286.374z M425.515,286.374h-4.296v4.293h4.296V286.374z M409.635,281.079h-4.294
	v4.296h4.294V281.079z M420.221,281.079h-4.294v4.296h4.294V281.079z M425.515,281.079h-4.296v4.296h4.296V281.079z
	 M431.711,275.179h-38.558v-24.684h38.558V275.179z M412.431,256.749c3.369,0,6.087,2.721,6.087,6.089
	c0,3.368-2.718,6.089-6.087,6.089c-3.368,0-6.088-2.721-6.088-6.089C406.344,259.469,409.063,256.749,412.431,256.749z
	 M400.148,257.49v-2.999h-3v2.999H400.148z M431.711,249.496h-38.984c-0.027-0.005-0.055-0.007-0.082-0.006
	c-0.021,0-0.042,0.002-0.063,0.006H268.697c-0.027-0.005-0.054-0.007-0.081-0.006c-0.02,0-0.041,0.002-0.062,0.006h-8.8v-9.378
	h171.957V249.496L431.711,249.496z"></path>
<path id="color_x5F_2" fill-rule="evenodd" clip-rule="evenodd" fill="#FBC02D" d="M436.536,466.423h-22.54v-36.062
	c0-0.274-0.226-0.499-0.499-0.499H239.221V401.22h119.823c0.053,0.009,0.108,0.009,0.162,0h77.33V466.423z M487.106,466.423h-49.572
	V401.22h49.572V466.423z M310.54,400.221h-45.885c-5.304-0.001-9.936-2.874-12.432-7.144c-0.015-0.037-0.034-0.072-0.057-0.105
	c-0.327-0.57-0.62-1.162-0.868-1.777c-0.001-0.003-0.003-0.006-0.004-0.008l-27.41-64.818c-3.559-8.414,0.379-18.121,8.791-21.679
	c1.565-0.662,3.175-1.063,4.781-1.225c0,0,1.618-0.086,1.657-0.086l-0.001,0.001c4.403,0,8.654,1.771,11.76,4.902
	c0.025,0.033,0.055,0.064,0.088,0.09c1.402,1.436,2.567,3.15,3.396,5.111c0.268,0.633,20.514,58.128,20.514,58.128
	c0.068,0.191,0.245,0.323,0.447,0.332l35.222,1.678L310.54,400.221L310.54,400.221z M259.218,400.221h-19.997v-6.457h12.252
	C253.246,396.699,255.971,398.991,259.218,400.221z M358.625,400.221h-24.079c1.233-0.795,2.188-2.01,2.607-3.494l0.835-2.963
	h18.648c1.103,0,1.989,0.882,1.989,1.986V400.221L358.625,400.221z M130.281,368.976h-17.415c-5.999,0-11.305,2.934-14.599,7.434
	l16.271-60.719c1.96-7.314,8.532-12.146,15.743-12.249V368.976L130.281,368.976z M431.717,359.466l2.992,4.462l-4.002,0.817
	L431.717,359.466z M259.254,239.12c-0.274,0-0.499,0.226-0.499,0.499v10.295c-0.008,0.054-0.008,0.109,0,0.163v72.873l-2.762-7.824
	l-0.01-0.029c-0.194-0.672-0.428-1.342-0.708-2.004c-0.86-2.034-2.064-3.816-3.512-5.32v-70.177c0-3.023,2.445-5.469,5.47-5.469
	h176.998c3.024,0,5.469,2.446,5.469,5.469v107.449c0,3.025-2.445,5.47-5.469,5.47H268.486l-8.11-22.972H432.21
	c0.119,0.001,0.234-0.041,0.325-0.117c0.138-0.114,0.205-0.293,0.175-0.468v-76.884c0.009-0.054,0.009-0.109,0-0.163v-10.293
	c0-0.274-0.225-0.499-0.499-0.499L259.254,239.12L259.254,239.12z M345.731,334.521c2.498,0,4.513,2.014,4.513,4.51
	s-2.015,4.51-4.513,4.51c-2.497,0-4.51-2.014-4.51-4.51S343.234,334.521,345.731,334.521z M291.596,326.547h-22.475v-76.051h123.032
	v76.051h-22.475v-59.743c0-0.275-0.226-0.499-0.499-0.499h-77.084c-0.274,0-0.499,0.225-0.499,0.499L291.596,326.547
	L291.596,326.547z M425.515,290.666h-4.296v-4.293h4.296V290.666z M409.635,285.375h-4.294v-4.296h4.294V285.375z M412.431,256.749
	c3.369,0,6.087,2.721,6.087,6.089c0,3.368-2.718,6.089-6.087,6.089c-3.368,0-6.088-2.721-6.088-6.089
	C406.344,259.469,409.063,256.749,412.431,256.749z M400.148,257.49h-3v-2.999h3V257.49z"></path>
<path id="color_x5F_1" fill-rule="evenodd" clip-rule="evenodd" fill="#0984E3" d="M555.318,465.921l0.015-0.001
	c0.547,0,0.999,0.451,0.999,1c0,0.547-0.451,0.999-0.999,0.999h-0.015h-1.949h-0.014c-0.547,0-0.999-0.451-0.999-0.999
	s0.451-1,0.999-1c0.005,0,0.01,0,0.014,0.001H555.318z M547.688,465.921l0.014-0.001c0.548,0,0.999,0.451,0.999,1
	c0,0.547-0.45,0.999-0.999,0.999h-0.014h-6.643h-0.014c-0.547,0-0.999-0.451-0.999-0.999s0.451-1,0.999-1
	c0.005,0,0.01,0,0.014,0.001H547.688z M41.861,465.921l0.015-0.001c0.547,0,0.999,0.451,0.999,1c0,0.547-0.451,0.999-0.999,0.999
	h-0.015h-2.627h-0.015c-0.547,0-0.999-0.451-0.999-0.999s0.451-1,0.999-1c0.005,0,0.01,0,0.015,0.001H41.861z M168.26,301.964
	l2.055-26.472c-0.156-0.202-0.229-0.455-0.203-0.71c-6.299-8.277-10.161-17.081-10.833-25.467
	c-0.681-8.497,2.003-16.556,8.624-22.917c0.043-0.123,0.381-1.082,0.944-2.675c2.84-8.024,10.321-13.41,18.717-13.662
	c0.56-0.017,1.123-0.01,1.69,0.019c19.222,1.001,50.668,2.64,50.668,2.64c0.527,0.027,0.947,0.469,0.947,0.998
	c0,0.048-0.003,0.096-0.01,0.143c-1.544,10.619-6.982,16.186-8.985,17.939l10.14,9.085c0.212,0.19,0.333,0.46,0.333,0.744
	c0,0.248-0.092,0.486-0.259,0.67c-7.898,8.711-16.143,12.523-18.357,13.443c-0.444,6.505-0.718,10.503-1.273,18.624
	c-0.299,4.367-2.413,8.411-5.829,11.148c-3.335,2.672-7.614,3.848-11.842,3.289v13.161h32.677l1.643-0.08
	c4.053,0.003,7.99,1.386,11.158,3.868v-68.157c0-3.804,3.083-6.919,6.968-6.969h176.998c3.884,0.05,6.968,3.164,6.968,6.969v107.449
	c0,3.835-3.132,6.969-6.968,6.969H367.52v47.705h9.362l1.151-1.857c4.264-6.882,11.676-10.875,19.425-10.971
	c2.584-0.033,5.205,0.37,7.759,1.24c1.945,0.663,3.778,1.287,5.31,1.81c2.964,1.01,4.961,3.802,4.961,6.934v2.844h10.323v-23.885
	c0-0.515,0.4-0.945,0.999-0.999h4.173l-1.883-9.249c-0.001-0.002-0.001-0.005-0.002-0.008c-0.006-0.027-0.01-0.055-0.014-0.084
	c0-0.009-0.001-0.018-0.002-0.027c-0.002-0.025-0.003-0.049-0.004-0.074v-0.023c0.001-0.026,0.002-0.051,0.004-0.077
	c0.001-0.007,0.002-0.014,0.002-0.021c0.003-0.026,0.007-0.052,0.012-0.078v-0.004l1.377-7.202c0.089-0.461,0.492-0.801,0.962-0.81
	c0.339-0.007,0.659,0.16,0.848,0.441l4.087,6.09c0.008,0.012,0.015,0.024,0.022,0.036c0.008,0.013,0.016,0.027,0.023,0.041
	c0.014,0.023,0.026,0.047,0.037,0.072c0.003,0.006,0.006,0.012,0.008,0.017c0.025,0.06,0.044,0.122,0.057,0.186
	c0.001,0.002,0.001,0.004,0.002,0.006c0.004,0.017,0.007,0.034,0.01,0.051l2.182,10.717h2.652l3.185-18.282
	c0.082-0.467,0.484-0.815,0.958-0.828c0.067-0.002,0.134,0.003,0.199,0.014l5.493,0.958c0.476,0.084,0.827,0.5,0.827,0.984
	c0,0.058-0.005,0.116-0.015,0.173l-0.262,1.498c0.255,0.045,0.279,0.048,0.597,0.104h0.002c0.909,0.158,1.717,0.671,2.247,1.426
	c0.53,0.754,0.739,1.692,0.581,2.6c-0.563,3.231-1.484,8.521-1.484,8.521c-0.08,0.48-0.499,0.837-0.986,0.837
	c-0.548,0-0.999-0.451-0.999-0.999c0-0.06,0.005-0.12,0.016-0.179c0,0,0.923-5.293,1.486-8.524c0.068-0.388-0.021-0.786-0.248-1.108
	c-0.227-0.323-0.57-0.539-0.958-0.606c-0.32-0.056-0.344-0.06-0.599-0.104l-2.354,13.515h4.541c0.548,0,0.999,0.451,0.999,0.999
	v23.885h15.963l0.383-1.128c8.747-25.187,24.792-45.417,44.173-58.36c0.152-0.102,0.33-0.16,0.512-0.168
	c0.447-0.019,0.856,0.265,0.994,0.69c6.869,21.189,7.197,45.711-0.422,69.829c14.665-8.597,30.607-13.078,46.008-13.482h0.025
	c0.548,0,0.999,0.45,0.999,0.999c0,0.083-0.01,0.166-0.031,0.246c-4.901,19.267-16.61,37.916-34.376,52.105
	c-8.371,6.687-17.411,11.835-26.71,15.472h33.257l0.014-0.001c0.548,0,0.999,0.451,0.999,1c0,0.547-0.45,0.999-0.999,0.999h-0.014
	H48.684h-0.015c-0.547,0-0.999-0.451-0.999-0.999s0.451-1,0.999-1c0.005,0,0.01,0,0.015,0.001h31.422
	c-6.361-3.01-12.455-6.77-18.192-11.352c-15.79-12.611-26.198-29.183-30.555-46.311c-0.021-0.081-0.031-0.164-0.031-0.248
	c0-0.548,0.45-0.999,0.999-0.999h0.027c13.602,0.357,27.675,4.29,40.64,11.834c-6.68-21.34-6.362-43.026-0.285-61.775
	c0.133-0.408,0.512-0.686,0.941-0.69c0.201-0.003,0.398,0.056,0.565,0.168c8.234,5.499,15.776,12.494,22.27,20.727l16.607-61.974
	c2.182-8.144,9.626-13.503,17.704-13.375c0.086,0.002,0.172,0.014,0.254,0.037L168.26,301.964L168.26,301.964z M94.266,465.921
	v-7.161L50.36,423.693c-0.243-0.189-0.385-0.48-0.385-0.788c0-0.543,0.442-0.992,0.986-0.999c0.235-0.003,0.463,0.078,0.645,0.227
	l40.233,32.133c-7.459-9.211-13.578-20.039-17.789-32.165c-0.042-0.122-0.077-0.244-0.119-0.367
	c-12.77-7.866-26.721-11.988-40.223-12.59c4.446,16.198,14.422,31.861,29.451,43.865c6.876,5.491,14.265,9.789,21.865,12.912
	L94.266,465.921L94.266,465.921z M210.643,439.449l4.342,26.472h90.205l-2.429-8.648c-2.959-10.544-12.563-17.823-23.514-17.823
	h-68.604V439.449z M412.498,465.921v-34.564H239.72v6.095h39.526c11.838,0,22.239,7.883,25.438,19.281
	c1.409,5.022,2.412,8.595,2.579,9.189h105.235V465.921z M112.867,370.47c-9.181,0-16.603,7.422-16.603,16.603v78.848h116.698
	c0,0-10.452-63.725-13.373-81.534c-1.316-8.033-8.245-13.917-16.384-13.917H112.867L112.867,370.47z M486.608,465.92v-64.205
	h-48.574v64.205L486.608,465.92L486.608,465.92z M436.036,465.92v-64.205H239.72v27.644h173.777c0.548,0,0.999,0.45,0.999,0.999
	v35.562L436.036,465.92L436.036,465.92z M527.571,448.889c17.037-13.631,28.291-31.345,33.275-49.657
	c-15.302,0.649-31.122,5.318-45.594,14.243c-0.052,0.151-0.096,0.303-0.148,0.454c-4.879,14.048-12.031,26.552-20.764,37.111
	l46.243-36.933c0.174-0.144,0.391-0.225,0.616-0.229h0.019c0.547,0,0.999,0.45,0.999,0.999c0,0.309-0.144,0.601-0.388,0.79
	l-53.224,42.509v7.744h7.604c10.946-3.588,21.57-9.226,31.36-17.031L527.571,448.889L527.571,448.889z M515.086,342.717
	c-18.532,12.774-33.842,32.281-42.263,56.529h-0.002c-0.055,0.157-0.106,0.315-0.16,0.471h14.945c0.547,0,0.999,0.451,0.999,0.999
	v15.207l14.515-41.791c0.137-0.414,0.53-0.693,0.968-0.684c0.54,0.01,0.979,0.457,0.979,0.998c0,0.117-0.021,0.233-0.061,0.342
	l-16.401,47.227v32.54c10.488-11.303,19.048-25.265,24.61-41.28C521.637,389.025,521.713,364.229,515.086,342.717L515.086,342.717z
	 M74.235,359.037c-5.755,18.801-5.732,40.421,1.445,61.612c0.035,0.074,0.06,0.152,0.076,0.233c0.064,0.188,0.118,0.376,0.184,0.563
	c4.299,12.38,10.618,23.377,18.327,32.632v-34.323l-11.253-32.401c-0.04-0.109-0.06-0.224-0.06-0.341
	c0-0.528,0.42-0.971,0.949-0.997c0.446-0.022,0.856,0.258,0.997,0.682l9.368,26.969v-26.595c0-2.638,0.558-5.144,1.551-7.419
	C89.573,371.501,82.27,364.597,74.235,359.037L74.235,359.037z M237.723,437.452V376.33h-39.334c1.59,2.244,2.702,4.868,3.171,7.734
	c2.884,17.589,5.706,34.797,8.755,53.388H237.723z M310.041,399.718v-25.625l-34.747-1.654c-0.404-0.02-0.758-0.284-0.893-0.665
	l-7.153-20.268c-0.056-0.098-0.094-0.205-0.114-0.317l-8.355-23.676c-0.048-0.09-0.082-0.186-0.101-0.287l-0.334-0.942
	c-0.023-0.05-0.041-0.102-0.055-0.154l-3.718-10.538c-0.006-0.019-0.012-0.038-0.017-0.057c-0.179-0.624-0.398-1.246-0.658-1.861
	c-0.794-1.88-1.908-3.526-3.246-4.908c-0.065-0.052-0.124-0.111-0.175-0.178c-3.002-3.006-7.097-4.708-11.34-4.713
	c-0.13,0.058-0.271,0.088-0.413,0.086h-1.228c-1.553,0.159-3.109,0.546-4.622,1.187c-8.165,3.452-11.98,12.858-8.528,21.023
	l15.255,36.075c0.028,0.053,0.052,0.108,0.07,0.166l12.085,28.578c0.002,0.005,0.005,0.01,0.008,0.016
	c0.234,0.58,0.51,1.139,0.817,1.677c0.044,0.061,0.08,0.127,0.109,0.196c2.417,4.09,6.867,6.839,11.966,6.839L310.041,399.718
	L310.041,399.718z M413.49,399.718v-2.844c0-2.283-1.448-4.307-3.61-5.043c-1.532-0.522-3.365-1.148-5.31-1.811
	c-2.337-0.796-4.732-1.164-7.093-1.135c-7.081,0.085-13.847,3.731-17.747,10.027v0.002c-0.303,0.486-0.28,0.451-0.497,0.803
	L413.49,399.718L413.49,399.718z M452.592,399.718v-5.522h-24.785v5.522H452.592z M365.522,399.718v-47.705h-39.581v17.346
	c0.006,0.001,0.012,0.001,0.018,0.002h0.002c1.053,0.141,2.028,0.602,2.803,1.303c0,0,3.609-9.825,4.138-11.266
	c0.537-1.463,1.904-2.401,3.377-2.475c0.726-0.037,1.716,0.342,1.81,0.428c1.711,0.841,2.592,2.831,1.922,4.656
	c-0.529,1.441-4.155,11.315-4.155,11.315c0.757,0.036,0.902,0.043,1.707,0.082h0.002c1.596,0.076,3.07,0.876,4.005,2.172h0.002
	c0.933,1.296,1.225,2.948,0.792,4.488v0.002c-1.007,3.572-2.273,8.07-3.436,12.195h17.709c1.912,0,3.486,1.571,3.486,3.485v3.971
	L365.522,399.718L365.522,399.718z M331.22,399.718c2.145-0.039,3.932-1.413,4.492-3.4c0.242-0.86,0.605-2.149,0.893-3.172
	c0.012-0.105,0.041-0.208,0.086-0.304c1.223-4.344,2.651-9.418,3.749-13.318c0.269-0.955,0.089-1.977-0.489-2.781
	c-0.58-0.804-1.491-1.298-2.482-1.345c-1.344-0.064-7.395-0.352-7.395-0.352c-0.303-0.015-0.583-0.167-0.761-0.414
	c0,0-0.542-0.752-0.999-1.383c-0.006-0.008-0.013-0.017-0.019-0.025c-0.193-0.267-0.191-0.263-0.417-0.577
	c-0.518-0.717-1.306-1.19-2.183-1.307c-0.192-0.025-0.385-0.028-0.575-0.019c-0.061,0.011-0.123,0.016-0.186,0.015
	c-0.612,0.064-1.202,0.295-1.689,0.689v0.002c-1.474,1.189-2.859,2.305-2.859,2.305c-0.191,0.154-0.43,0.233-0.675,0.221
	l-7.671-0.365v25.529L331.22,399.718L331.22,399.718z M256.963,399.718c-2.392-1.345-4.348-3.211-5.761-5.458H239.72v5.458H256.963z
	 M338.364,394.259l-0.732,2.601c-0.312,1.107-0.898,2.076-1.668,2.858h22.161v-3.971c0-0.806-0.613-1.443-1.488-1.487
	L338.364,394.259L338.364,394.259z M250.138,392.262l-0.229-0.51l-10.189-24.094v24.604H250.138L250.138,392.262z M427.807,376.831
	v15.366h24.785v-15.366H427.807z M436.672,374.834l-1.912-9.391l-3.505,0.714l1.765,8.676h3.652V374.834z M447.021,374.834
	l2.555-14.654c-0.002-0.128,0.021-0.256,0.067-0.377l0.228-1.31l-3.527-0.614l-2.953,16.955L447.021,374.834L447.021,374.834z
	 M129.782,368.473V303.95c-6.791,0.313-12.906,4.942-14.761,11.868l-15.683,58.527c3.374-3.584,8.138-5.845,13.529-5.872
	L129.782,368.473L129.782,368.473z M237.723,374.332h-40.97c-3.417-3.631-8.259-5.86-13.548-5.86H131.78v-24.435h97.952
	l7.991,18.897L237.723,374.332L237.723,374.332z M333.352,363.964l3.359,1.233l-2.945,8.025c-1.075-0.051-2.91-0.139-3.117-0.148
	c-0.07-0.098-0.309-0.427-0.425-0.589L333.352,363.964L333.352,363.964z M269.545,352.013h54.399v17.475
	c-0.706,0.185-1.374,0.516-1.955,0.985c-1.321,1.066-2.318,1.871-2.563,2.068l-43.365-2.065L269.545,352.013z M431.978,360.75
	l1.903,2.835l-2.544,0.518L431.978,360.75L431.978,360.75z M334.777,360.087c0.615-1.678,2.296-1.062,2.296-1.062
	c0.939,0.345,1.407,1.355,1.063,2.294c-0.361,0.982-0.535,1.46-0.735,2.004l-3.359-1.233
	C334.24,361.546,334.416,361.068,334.777,360.087L334.777,360.087z M257.234,232.624c-2.755,0-4.97,2.217-4.97,4.971v69.985
	c1.424,1.514,2.616,3.292,3.472,5.317c0.284,0.671,0.522,1.349,0.72,2.033l1.801,5.101v-80.414c0-0.515,0.398-0.945,0.999-0.999
	h172.956c0.599,0.054,0.999,0.483,0.999,0.999v87.266c0.073,0.456-0.181,0.907-0.609,1.083c-0.03,0.012-0.062,0.023-0.093,0.033
	c-0.097,0.03-0.197,0.045-0.297,0.045H261.083l7.756,21.973h165.393c2.802-0.047,4.971-2.245,4.971-4.971V237.595
	c0-2.754-2.216-4.971-4.971-4.971L257.234,232.624L257.234,232.624z M345.732,333.02c-3.307,0-6.009,2.702-6.009,6.009
	c0,3.306,2.702,6.008,6.009,6.008c3.306,0,6.01-2.702,6.01-6.008C351.742,335.721,349.038,333.02,345.732,333.02z M345.732,335.017
	c2.227,0,4.012,1.784,4.012,4.011c0,2.226-1.785,4.01-4.012,4.01s-4.011-1.784-4.011-4.01
	C341.721,336.801,343.505,335.017,345.732,335.017z M131.78,303.961v38.079h97.107l-6.381-15.091
	c-3.678-8.695,0.02-18.682,8.238-22.988H131.78L131.78,303.961z M267.624,326.044V250.99h-7.37v74.7l0.125,0.354H267.624z
	 M391.654,326.044V250.99H269.622v75.054h21.476v-59.245c0-0.515,0.398-0.945,0.999-0.999h77.083c0.6,0.054,0.999,0.483,0.999,0.999
	v59.245H391.654L391.654,326.044z M368.181,326.044v-58.246h-75.086v58.246H368.181z M431.212,326.04v-23.684h-37.56v23.684H431.212
	z M426.056,319.62h0.014c0.547,0,0.999,0.45,0.999,0.999s-0.451,0.999-0.999,0.999h-0.014h-27.249h-0.014
	c-0.547,0-0.999-0.45-0.999-0.999s0.451-0.999,0.999-0.999H426.056L426.056,319.62z M66.963,310.615
	c-0.547,0.009-0.991,0.465-0.983,1.013v7.368c0,0.548,0.45,1,0.999,1c0.548,0,0.999-0.451,0.999-1v-0.014v-7.354v-0.014
	c0-0.547-0.45-0.999-0.999-0.999H66.963z M426.056,313.2h0.014c0.547,0,0.999,0.451,0.999,0.999s-0.451,0.999-0.999,0.999h-0.014
	h-27.249h-0.014c-0.547,0-0.999-0.45-0.999-0.999c0-0.547,0.451-0.999,0.999-0.999H426.056L426.056,313.2z M59.554,307.553
	c-0.259,0.008-0.505,0.116-0.686,0.303l-5.201,5.199c-0.197,0.188-0.308,0.448-0.308,0.72c0,0.548,0.451,0.999,0.999,0.999
	c0.273,0,0.532-0.111,0.721-0.307l5.201-5.199c0.194-0.188,0.303-0.446,0.303-0.716c0-0.548-0.451-0.999-0.999-0.999H59.554
	L59.554,307.553z M74.374,307.553c0.324,0.024,0.548,0.13,0.716,0.303l5.201,5.199c0.196,0.188,0.308,0.448,0.308,0.72
	c0,0.548-0.451,0.999-1,0.999c-0.272,0-0.532-0.111-0.72-0.307l-5.201-5.199c-0.193-0.188-0.303-0.446-0.303-0.716
	C73.376,308.036,73.775,307.607,74.374,307.553z M426.056,306.781l0.014-0.001c0.547,0,0.999,0.451,0.999,1
	c0,0.547-0.451,0.999-0.999,0.999h-0.014h-27.249h-0.014c-0.547,0-0.999-0.451-0.999-0.999s0.451-1,0.999-1
	c0.005,0,0.01,0,0.014,0.001H426.056z M323.037,288.32c2.282,0.033,3.999,1.198,5.281,2.735c1.299,1.56,2.263,3.519,3.213,5.419
	c0.95,1.901,1.887,3.742,2.963,5.033c1.076,1.291,2.177,2.018,3.745,2.018c1.567,0,2.671-0.726,3.747-2.018
	c1.076-1.29,2.011-3.132,2.961-5.033s1.915-3.859,3.214-5.419c1.299-1.559,3.046-2.735,5.279-2.735h0.015
	c0.547,0,0.999,0.451,0.999,0.999s-0.451,0.999-0.999,0.999h-0.015c-1.567,0-2.669,0.726-3.745,2.018
	c-1.076,1.29-2.011,3.132-2.96,5.033c-0.951,1.901-1.916,3.859-3.215,5.419c-1.299,1.559-3.047,2.735-5.281,2.735
	c-2.233,0-3.981-1.176-5.281-2.735c-1.3-1.56-2.263-3.519-3.213-5.419c-0.95-1.901-1.888-3.742-2.963-5.033
	c-1.076-1.291-2.178-2.018-3.745-2.018s-2.67,0.726-3.745,2.018c-1.076,1.29-2.013,3.132-2.963,5.033s-1.913,3.859-3.213,5.419
	c-1.299,1.559-3.049,2.735-5.283,2.735h-0.014c-0.547,0-0.999-0.451-0.999-0.999s0.451-0.999,0.999-0.999h0.014
	c1.568,0,2.672-0.726,3.747-2.018c1.077-1.29,2.012-3.132,2.961-5.033c0.951-1.901,1.916-3.859,3.215-5.419
	C319.038,289.518,320.755,288.353,323.037,288.32z M56.506,300.156h0.014c0.547,0,0.999,0.45,0.999,0.999
	c0,0.547-0.451,0.999-0.999,0.999h-0.014h-7.353h-0.014c-0.548,0-0.999-0.451-0.999-0.999s0.45-0.999,0.999-0.999H56.506z
	 M84.806,300.156h0.014c0.547,0,0.999,0.45,0.999,0.999c0,0.547-0.451,0.999-0.999,0.999h-0.014h-7.353h-0.014
	c-0.548,0-0.999-0.451-0.999-0.999s0.45-0.999,0.999-0.999H84.806z M202.791,301.964v-13.451c-8.096-1.234-14.758-2.25-14.758-2.25
	c-0.496-0.064-0.872-0.491-0.872-0.991c0-0.548,0.451-0.999,0.999-0.999c0.059,0,0.118,0.005,0.176,0.015
	c0,0,6.722,1.025,15.448,2.356c0.103,0,0.206,0.016,0.304,0.047c0.396,0.061,0.286,0.044,0.691,0.106
	c3.776,0.577,7.621-0.453,10.602-2.843c2.98-2.388,4.823-5.916,5.084-9.726c0.566-8.284,0.875-12.779,1.301-18.997
	c-0.028-0.158-0.017-0.32,0.031-0.471c0.248-3.616,0.747-10.917,0.776-11.336h-17.246l-4.245,11.566
	c-0.066,0.178-0.181,0.334-0.333,0.448c-0.235,0.342-0.66,0.502-1.063,0.402c-1.122-0.269-2.321-0.27-3.517,0.05
	c-3.836,1.028-6.102,4.953-5.075,8.788c0.248,0.922,0.666,1.75,1.207,2.466c0.056,0.056,0.105,0.118,0.146,0.185
	c1.728,2.14,4.605,3.182,7.438,2.423c0.091-0.026,0.185-0.039,0.279-0.039c0.548,0,0.999,0.45,0.999,0.999
	c0,0.458-0.316,0.86-0.76,0.97c-3.405,0.912-6.889-0.234-9.13-2.665l-18.957,6.504l-2.053,26.442L202.791,301.964L202.791,301.964z
	 M431.212,300.358v-23.684h-37.56v23.684H431.212z M398.834,279.564c-0.547,0.008-0.991,0.464-0.984,1.012v15.896
	c0,0.547,0.451,0.999,0.999,0.999s0.999-0.451,0.999-0.999v-0.014v-15.882v-0.013c0-0.548-0.45-1-0.999-1
	C398.844,279.563,398.839,279.563,398.834,279.564z M426.016,279.577c0.599,0.054,0.999,0.483,0.999,0.999v10.587
	c0,0.547-0.451,0.999-0.999,0.999h-9.588v4.296c0,0.547-0.45,0.999-0.999,0.999h-10.587c-0.547,0-0.999-0.451-0.999-0.999v-15.882
	c0-0.515,0.4-0.945,0.999-0.999H426.016z M497.889,286.682c-0.547,0.008-0.991,0.464-0.984,1.012v7.369
	c0,0.547,0.45,0.999,0.999,0.999s0.999-0.451,0.999-0.999v-0.015v-7.354v-0.013c0-0.548-0.45-1-0.999-1
	C497.899,286.681,497.894,286.681,497.889,286.682L497.889,286.682z M409.135,295.458v-3.297h-3.295v3.297H409.135z M414.43,295.458
	v-3.297h-3.295v3.297H414.43z M54.364,287.542c-0.547,0-0.999,0.45-0.999,0.999c0,0.27,0.109,0.527,0.303,0.716l5.201,5.201
	c0.187,0.187,0.441,0.292,0.706,0.292c0.548,0,1-0.45,1-0.999c0-0.266-0.106-0.52-0.294-0.707l-5.201-5.199
	C54.892,287.651,54.633,287.542,54.364,287.542L54.364,287.542z M79.565,287.542c-0.259,0.008-0.505,0.116-0.686,0.303l-5.201,5.199
	c-0.188,0.187-0.294,0.441-0.294,0.707c0,0.548,0.451,0.999,1,0.999c0.265,0,0.518-0.105,0.706-0.292l5.201-5.201
	c0.194-0.189,0.303-0.446,0.303-0.716c0-0.548-0.45-1-0.999-1C79.585,287.541,79.575,287.542,79.565,287.542L79.565,287.542z
	 M66.963,282.315c-0.547,0.009-0.991,0.465-0.983,1.013v7.369c0,0.547,0.45,0.999,0.999,0.999c0.548,0,0.999-0.451,0.999-0.999
	v-0.015v-7.354v-0.014c0-0.547-0.45-0.999-0.999-0.999L66.963,282.315L66.963,282.315z M490.48,283.619h0.029
	c0.548,0,0.999,0.45,0.999,0.999c0,0.27-0.109,0.528-0.303,0.716l-5.201,5.199c-0.188,0.196-0.448,0.308-0.72,0.308
	c-0.548,0-1-0.451-1-1c0-0.272,0.112-0.532,0.308-0.72l5.201-5.199C489.974,283.736,490.22,283.627,490.48,283.619L490.48,283.619z
	 M505.299,283.619c0.324,0.024,0.548,0.13,0.716,0.303l5.201,5.199c0.197,0.188,0.308,0.448,0.308,0.72c0,0.548-0.451,1-0.999,1
	c-0.273,0-0.532-0.112-0.721-0.308l-5.201-5.199c-0.193-0.188-0.302-0.446-0.302-0.716
	C504.301,284.07,504.752,283.619,505.299,283.619L505.299,283.619z M419.722,290.164v-3.295h-3.295v3.295H419.722z M425.017,290.164
	v-3.295h-3.297v3.295H425.017z M409.135,290.164v-3.295h-3.295v3.295H409.135z M414.43,290.164v-3.295h-3.295v3.295H414.43z
	 M409.135,284.871v-3.297h-3.295v3.297H409.135z M414.43,284.871v-3.297h-3.295v3.297H414.43z M419.722,284.871v-3.297h-3.295v3.297
	H419.722z M425.017,284.871v-3.297h-3.297v3.297H425.017z M515.73,276.222h0.014c0.548,0,0.999,0.45,0.999,0.999
	c0,0.547-0.45,0.999-0.999,0.999h-0.014h-7.354h-0.015c-0.547,0-0.999-0.451-0.999-0.999s0.451-0.999,0.999-0.999H515.73z
	 M487.431,276.222h0.014c0.548,0,0.999,0.45,0.999,0.999c0,0.547-0.45,0.999-0.999,0.999h-0.014h-7.354h-0.015
	c-0.547,0-0.999-0.451-0.999-0.999s0.451-0.999,0.999-0.999H487.431L487.431,276.222z M431.212,274.677v-23.686h-37.56v23.686
	H431.212z M223.64,241.426h0.001c0.547,0,0.999,0.45,0.999,0.999c0,0.023-0.001,0.046-0.002,0.068c0,0-0.521,7.621-0.751,10.991
	c2.813-1.31,9.403-4.851,15.986-11.837l-10.175-9.116c-0.212-0.19-0.333-0.46-0.333-0.744c0-0.324,0.157-0.627,0.42-0.815
	c0,0,6.815-4.871,8.868-16.318c-1.39-0.072-30.723-1.601-49.503-2.579c-0.511-0.026-1.022-0.033-1.527-0.017
	c-7.584,0.227-14.327,5.082-16.891,12.332c-0.598,1.69-1.005,2.837-1.005,2.837c-0.053,0.15-0.142,0.286-0.258,0.395
	c-6.371,6-8.849,13.45-8.201,21.534c0.633,7.899,4.321,16.398,10.46,24.455l18.32-6.283c-0.373-0.659-0.677-1.367-0.882-2.13
	c-1.307-4.88,1.606-9.929,6.486-11.236c0.76-0.204,1.527-0.305,2.282-0.313c0.496-0.005,0.985,0.046,1.467,0.119l4.288-11.687
	c0.133-0.361,0.462-0.611,0.938-0.653L223.64,241.426L223.64,241.426z M426.136,265.709c-0.547,0.009-0.991,0.465-0.984,1.013v4.066
	c0,0.548,0.451,0.999,0.999,0.999s0.999-0.45,0.999-0.999v-0.014v-4.052v-0.014c0-0.547-0.45-0.999-0.999-0.999H426.136z
	 M510.489,263.608c-0.259,0.008-0.504,0.117-0.685,0.303l-5.201,5.199c-0.196,0.188-0.307,0.448-0.307,0.72
	c0,0.548,0.45,0.999,0.999,0.999c0.272,0,0.532-0.111,0.72-0.307l5.201-5.199c0.194-0.188,0.303-0.446,0.303-0.716
	c0-0.548-0.45-1-0.999-1C510.51,263.607,510.499,263.608,510.489,263.608z M485.288,263.608c-0.547,0-0.999,0.451-0.999,0.999
	c0,0.27,0.11,0.528,0.303,0.716l5.201,5.199c0.189,0.196,0.448,0.307,0.721,0.307c0.547,0,0.999-0.45,0.999-0.999
	c0-0.272-0.112-0.532-0.308-0.72l-5.201-5.199C485.817,263.717,485.558,263.608,485.288,263.608L485.288,263.608z M412.432,255.247
	c-4.178,0-7.587,3.409-7.587,7.587c0,4.177,3.409,7.586,7.587,7.586s7.585-3.409,7.585-7.586
	C420.017,258.656,416.61,255.247,412.432,255.247L412.432,255.247z M412.432,257.245c3.098,0,5.587,2.491,5.587,5.589
	c0,3.097-2.489,5.588-5.587,5.588s-5.589-2.491-5.589-5.588C406.843,259.736,409.334,257.245,412.432,257.245z M497.889,258.383
	c-0.547,0.008-0.991,0.464-0.984,1.012v7.369c0,0.547,0.45,0.999,0.999,0.999s0.999-0.451,0.999-0.999v-0.015v-7.354v-0.013
	c0-0.548-0.45-1-0.999-1C497.899,258.382,497.894,258.382,497.889,258.383L497.889,258.383z M400.647,252.988
	c0.6,0.054,0.999,0.483,0.999,0.999v3.999c0,0.548-0.45,0.999-0.999,0.999h-3.999c-0.547,0-0.999-0.45-0.999-0.999v-3.999
	c0-0.515,0.4-0.945,0.999-0.999H400.647z M399.649,256.987v-2.002h-2.002v2.002H399.649z M431.212,248.993v-8.379H260.254v8.379
	h132.239l0.145-0.014c0.057,0,0.113,0.005,0.17,0.014H431.212L431.212,248.993z M308.572,243.804h0.014
	c0.547,0,0.999,0.45,0.999,0.999c0,0.547-0.451,0.999-0.999,0.999h-0.014h-8.987h-0.015c-0.547,0-0.999-0.451-0.999-0.999
	c0-0.548,0.451-0.999,0.999-0.999H308.572z M292.676,243.804h0.014c0.547,0,0.999,0.45,0.999,0.999c0,0.547-0.451,0.999-0.999,0.999
	h-0.014h-8.989h-0.015c-0.547,0-0.999-0.451-0.999-0.999c0-0.548,0.451-0.999,0.999-0.999H292.676z M276.777,243.804h0.014
	c0.547,0,0.999,0.45,0.999,0.999c0,0.547-0.451,0.999-0.999,0.999h-0.014h-8.989h-0.014c-0.548,0-1-0.451-1-0.999
	c0-0.548,0.451-0.999,1-0.999H276.777z M424.221,243.804h0.014c0.547,0,0.999,0.45,0.999,0.999c0,0.547-0.451,0.999-0.999,0.999
	h-0.014h-0.98h-0.014c-0.548,0-0.999-0.451-0.999-0.999c0-0.548,0.45-0.999,0.999-0.999H424.221z M418.904,243.804h0.015
	c0.547,0,0.999,0.45,0.999,0.999c0,0.547-0.451,0.999-0.999,0.999h-0.015h-0.977h-0.014c-0.548,0-0.999-0.451-0.999-0.999
	c0-0.548,0.45-0.999,0.999-0.999H418.904z M413.591,243.804h0.014c0.548,0,0.999,0.45,0.999,0.999c0,0.547-0.45,0.999-0.999,0.999
	h-0.014h-0.979h-0.014c-0.548,0-1-0.451-1-0.999c0-0.548,0.451-0.999,1-0.999H413.591L413.591,243.804z M324.471,243.804h0.014
	c0.547,0,0.999,0.45,0.999,0.999c0,0.547-0.451,0.999-0.999,0.999h-0.014h-8.989h-0.015c-0.547,0-0.999-0.451-0.999-0.999
	c0-0.548,0.451-0.999,0.999-0.999H324.471z M353.641,126.621c-21.144,0-38.305,17.161-38.305,38.304
	c0,21.144,17.161,38.305,38.305,38.305c21.143,0,38.306-17.161,38.306-38.305C391.947,143.782,374.784,126.621,353.641,126.621
	L353.641,126.621z M353.641,128.618c20.064,0,36.309,16.243,36.309,36.307c0,20.065-16.245,36.308-36.309,36.308
	c-20.065,0-36.308-16.243-36.308-36.308C317.333,144.862,333.576,128.618,353.641,128.618z M353.641,135.973
	c-15.98,0-28.954,12.974-28.954,28.953c0,15.98,12.974,28.955,28.954,28.955c15.979,0,28.955-12.975,28.955-28.955
	C382.595,148.947,369.619,135.973,353.641,135.973z M353.641,137.97c14.899,0,26.957,12.056,26.957,26.955
	c0,14.9-12.058,26.957-26.957,26.957c-14.9,0-26.956-12.057-26.956-26.957C326.684,150.026,338.741,137.97,353.641,137.97z
	 M172.511,176.489c-0.547,0.009-0.991,0.465-0.983,1.013v7.368c0,0.548,0.45,1,0.999,1c0.547,0,0.999-0.451,0.999-1v-0.014v-7.354
	v-0.014c0-0.547-0.451-0.999-0.999-0.999L172.511,176.489L172.511,176.489z M179.92,173.427c-0.547,0.001-0.997,0.451-0.997,0.999
	c0,0.27,0.109,0.528,0.303,0.716l5.199,5.199c0.188,0.196,0.448,0.307,0.72,0.307c0.548,0,0.999-0.45,0.999-0.999
	c0-0.272-0.111-0.532-0.307-0.72l-5.199-5.199C180.449,173.536,180.191,173.426,179.92,173.427L179.92,173.427z M165.1,173.427
	c-0.26,0.008-0.505,0.116-0.686,0.303l-5.199,5.199c-0.197,0.188-0.308,0.448-0.308,0.72c0,0.548,0.451,0.999,0.999,0.999
	c0.272,0,0.532-0.111,0.721-0.307l5.199-5.199c0.193-0.188,0.303-0.446,0.303-0.716c0-0.548-0.451-0.999-0.999-0.999L165.1,173.427
	L165.1,173.427z M190.352,166.032h0.014c0.548,0,1,0.45,1,0.999c0,0.547-0.451,0.999-1,0.999h-0.014h-7.354h-0.014
	c-0.548,0-0.999-0.451-0.999-0.999c0-0.548,0.45-0.999,0.999-0.999H190.352L190.352,166.032z M162.053,166.032h0.015
	c0.547,0,0.999,0.45,0.999,0.999c0,0.547-0.451,0.999-0.999,0.999h-0.015h-7.352h-0.014c-0.548,0-0.999-0.451-0.999-0.999
	c0-0.548,0.45-0.999,0.999-0.999H162.053L162.053,166.032z M353.641,165.924c-0.6-0.054-0.999-0.483-0.999-0.999V146.29
	c-0.008-0.548,0.436-1.005,0.985-1.013h0.014c0.547,0,0.999,0.451,0.999,0.999v17.651h10.546c0.547,0,0.999,0.451,0.999,0.999
	c0,0.548-0.451,0.999-0.999,0.999h-0.014L353.641,165.924L353.641,165.924z M185.111,153.416c-0.259,0.008-0.505,0.116-0.686,0.303
	l-5.199,5.199c-0.188,0.187-0.294,0.441-0.294,0.707c0,0.548,0.451,0.999,1,0.999c0.265,0,0.518-0.105,0.706-0.292l5.199-5.201
	c0.194-0.189,0.303-0.447,0.303-0.717c0-0.547-0.451-0.999-0.999-0.999C185.131,153.415,185.121,153.415,185.111,153.416
	L185.111,153.416z M159.911,153.416c-0.548,0-0.999,0.45-0.999,0.999c0,0.27,0.109,0.527,0.303,0.716l5.199,5.201
	c0.187,0.187,0.441,0.292,0.706,0.292c0.548,0,0.999-0.45,0.999-0.999c0-0.266-0.105-0.52-0.293-0.707l-5.199-5.199
	C160.439,153.525,160.181,153.416,159.911,153.416L159.911,153.416z M172.511,148.19c-0.547,0.009-0.991,0.465-0.983,1.013v7.368
	c0,0.548,0.45,1,0.999,1c0.547,0,0.999-0.451,0.999-1v-0.014v-7.354v-0.014c0-0.547-0.451-0.999-0.999-0.999L172.511,148.19
	L172.511,148.19z"></path>
</svg>