<svg xmlns:xlink="http://www.w3.org/1999/xlink" xmlns="http://www.w3.org/2000/svg" viewBox="0 0 385.26 356.3" width="385.26"  height="356.3" ><defs><style>.cls-1,.cls-3,.cls-8{fill:#001a3c;}.cls-1,.cls-12,.cls-14,.cls-2,.cls-4,.cls-5,.cls-6,.cls-7{stroke:#001a3c;}.cls-1,.cls-10,.cls-11,.cls-12,.cls-14,.cls-15,.cls-16,.cls-2,.cls-4,.cls-6,.cls-7,.cls-8,.cls-9{stroke-miterlimit:10;}.cls-2,.cls-7{fill:#fdcca9;}.cls-15,.cls-16,.cls-2,.cls-5,.cls-6{stroke-width:2.95px;}.cls-10,.cls-11,.cls-14,.cls-15,.cls-16,.cls-4,.cls-9{fill:none;}.cls-4{stroke-width:1.47px;}.cls-5,.cls-6{fill:#7bccd0;}.cls-5{stroke-linejoin:round;}.cls-12,.cls-7{stroke-width:2.43px;}.cls-8{stroke:#fff;}.cls-10,.cls-11,.cls-16,.cls-9{stroke:#7bccd0;}.cls-9{stroke-width:0.5px;}.cls-10{stroke-width:0.4px;}.cls-11{stroke-width:0.26px;}.cls-12{fill:#fdcc80;}.cls-13{fill:#e95359;}.cls-14{stroke-width:2.51px;}.cls-15{stroke:#fdcca9;}.cls-17{fill:#5bcfd2;}</style></defs><g id="Layer_2" data-name="Layer 2"><g id="Layer_1-2" data-name="Layer 1"><path class="cls-1" d="M144.25,281s-25.19,55.71-39.74,64.13c-7,4-16.09-46.76-16.09-46.76l17.71-22.13S131.32,280.7,144.25,281Z"/><path class="cls-2" d="M178.23,140.11l-.94,30s33.1,21.82,54.91-3l-3-31Z"/><path class="cls-2" d="M244.61,81.06s9.59-12.22,14.67-4.89-7.15,31.78-17.3,32"/><path class="cls-2" d="M162.43,74.86s-2.07-9-8.65-2.83c-4.85,4.58.19,27.46,10.16,35.17"/><path class="cls-2" d="M162.62,77.86S156.35,119,191,154.59c0,0,2.51,4.76,22.57,1.75,6.52-2,24.82-31.09,27.08-43.37s2.76-31.85,2.76-31.85l-6.52-34.35-65.19-4.26-7.78,13Z"/><path class="cls-3" d="M164.13,76.61l-5.77-6.77.25-31.09S146.37,28.57,151.92,17s63.94-29.34,93.78-4.52c8.27,10,2.67,26.24,2.67,26.24s4.51.5,5.27,7.52-.76,27.58-.76,27.58-8.77,6.27-8.27,9.53-12-18-9-35.85c0,0-32.06,20.15-63.92.49,0,0-1.27,10.79-7.28,18.56Z"/><ellipse class="cls-3" cx="184.33" cy="94.79" rx="4.98" ry="6.58"/><ellipse class="cls-3" cx="216.82" cy="94.79" rx="4.98" ry="6.58"/><path class="cls-3" d="M195,78v7.15s-7.28-5.52-14.8-4.39a15.16,15.16,0,0,0-10.65,6.64s-1.88.13-.51-4.26,4.27-8.9,12.79-8.9S195,78,195,78Z"/><path class="cls-3" d="M208,78v7.15s7.27-5.52,14.79-4.39a15.19,15.19,0,0,1,10.66,6.64s1.88.13.5-4.26-4.26-8.9-12.79-8.9S208,78,208,78Z"/><path class="cls-4" d="M173.72,89.81s9.55-12.6,17.67-.57"/><path class="cls-4" d="M208.5,90.93s2.61-9.34,12.42-6c5,1.69,8.65,7.24,8.65,7.24"/><path class="cls-4" d="M196.28,100.05l-3.67,21.82s8.94,0,11.76-4.14"/><path class="cls-4" d="M190.33,133.65s17.92,6.9,33-15.29"/><polygon class="cls-3" points="215.06 156.62 231.49 154.14 228.34 138.75 215.06 156.62"/><path class="cls-5" d="M129.2,183.08,88.15,270s23.26,13.1,51.34,11.09S129.2,183.08,129.2,183.08Z"/><path class="cls-6" d="M232.32,156.62s8.15,5.77,46.64,19.43c0,0,32,57.61,50.58,85.69,0,0-26.39-5.64-36.79,11.46l-14.29,2.27s.43,47.45,1.28,76.72c0,0-72.51,5.79-143.35-3.06,0,0,6.48-56,6.67-74.41.26-23.89-13.86-91.64-13.86-91.64l48-25S205,189,232.32,156.62Z"/><path class="cls-6" d="M273.71,266S261,199,279,176.05"/><path class="cls-7" d="M130.55,283.09S113.87,338,105,343.47s-12.26,1.36-12.26,1.36L90.25,341c-17.22-26-17-53.86.56-79.69,22.14-32.63,52.87-72.5,74.8-79.36,0,0,15-2,23.15,7.15S204.45,202,204.45,202s5.76,2.82,6.1,6.56-7.15,8.17-17.7-1.36-13.28-10.55-13.28-10.55l8.85,8.51-8.17,24.51-18.93-4.21a13.7,13.7,0,0,0-13.62,4.51,13,13,0,0,0-2.51,4.81C143.15,242.24,130.55,283.09,130.55,283.09Z"/><rect class="cls-8" x="179.92" y="179.55" width="38.74" height="72.96" rx="2.29"/><path class="cls-9" d="M181.79,186.31v-2.23a2,2,0,0,1,2-2h30.51a2,2,0,0,1,2,2v2.62"/><circle class="cls-10" cx="198.98" cy="200.25" r="2.47"/><circle class="cls-10" cx="186.66" cy="188.63" r="2.47"/><circle class="cls-11" cx="186.66" cy="188.63" r="1.62"/><path class="cls-3" d="M331.79,262.78s3.45,2.94-3.7,7l-5.87-7.91Z"/><path class="cls-2" d="M328.15,306.35h0A91.62,91.62,0,0,0,287.47,271c-12.38-5.47-20.21-8.17-31.83-16.15-24.82-17-28.08-24.57-28.08-24.57L230.5,206a9.19,9.19,0,0,0-3.11-10.17c-3.27-2.54-6.85-4.83-6.85-4.83v8.27c0,3.72-2.28,4.89-5,6.52A17.81,17.81,0,0,1,204.45,208l-25.83-1.52a7.34,7.34,0,0,0-8.16,7.57l.76,20.73a7.91,7.91,0,0,0,6.64,7.52l23.55,2.19c3.17.52,9.48,2.53,11.53,5,62,74.9,112.41,96.2,112.41,96.2l.93-1a43.77,43.77,0,0,0,11.06-41.83,255.15,255.15,0,0,0-13-37.69c-1.29-2.92-4.4-3.92-7.59-3.76-9.92.52-21.52,5.89-24,11.78"/><path class="cls-2" d="M196.86,220.1s-3.75.39-16.09-.08c-11.06-.43-10.3-6.81-10.3-6.81s-2.53-14.9,9.09-15.79v11.4"/><path class="cls-2" d="M170.9,222.82s-.77,6.39,10.3,6.81c12.33.48,16.08.09,16.08.09"/><path class="cls-2" d="M171,228.65s-.85,7,10.22,7.45c12.33.48,16.08.09,16.08.09"/><rect class="cls-12" x="14" y="346.65" width="370.04" height="8.43"/><path class="cls-13" d="M180.32,319.72H161.91a17.5,17.5,0,0,1-2.54,7.92C154.64,335.2,159.14,346,167,346h8.19c7.88,0,12.38-10.8,7.65-18.36A17.5,17.5,0,0,1,180.32,319.72Z"/><path class="cls-14" d="M175.21,346H167c-7.88,0-12.38-10.8-7.65-18.36h0a18.12,18.12,0,0,0,2.29-12.77l-1.52-8.14h22l-1.52,8.14a18.07,18.07,0,0,0,2.29,12.77h0C187.59,335.2,183.09,346,175.21,346Z"/><path class="cls-3" d="M156.28,346.27h29.19a8.48,8.48,0,0,0,7-3.45H149.24A8.49,8.49,0,0,0,156.28,346.27Z"/><rect class="cls-15" x="1.47" y="106.91" width="126.51" height="38.3" rx="19.15"/><rect class="cls-15" x="1.47" y="8.87" width="76.51" height="38.3" rx="19.15"/><rect class="cls-16" x="56.97" y="57.12" width="82.51" height="38.3" rx="19.15"/><circle class="cls-17" cx="104.83" cy="163.68" r="3.4"/><circle class="cls-17" cx="94.24" cy="161.38" r="3.4"/><circle class="cls-17" cx="114.54" cy="165.72" r="3.4"/><line class="cls-15" x1="13.66" y1="121.21" x2="98.56" y2="121.21"/><line class="cls-15" x1="13.66" y1="130.14" x2="40.86" y2="130.14"/><line class="cls-16" x1="128.17" y1="80.72" x2="98.22" y2="80.72"/><line class="cls-16" x1="128.17" y1="71.16" x2="90.73" y2="71.16"/><line class="cls-15" x1="13.92" y1="23.16" x2="52.6" y2="23.16"/><line class="cls-15" x1="13.92" y1="32.61" x2="40.6" y2="32.61"/></g></g></svg>